<svg version="1.1" id="Layer_1" xmlns="http://www.w3.org/2000/svg" xmlns:xlink="http://www.w3.org/1999/xlink" x="0px" y="0px"
	 width="100%" viewBox="0 0 496 496" enable-background="new 0 0 496 496" xml:space="preserve">
<path fill="#000000" opacity="1.000000" stroke="none" 
	d="
M218.947052,366.024994 
	C223.332947,365.777435 227.703476,364.545227 231.950592,365.379974 
	C232.862030,367.739166 230.036987,367.166016 230.134842,368.826050 
	C242.922684,368.054291 255.741013,370.007629 268.508179,367.760742 
	C273.509247,366.880554 278.424286,368.589935 283.299103,369.618195 
	C290.493103,371.135712 297.748657,371.530731 305.083466,371.767548 
	C310.048096,371.927856 314.937531,372.172180 319.892334,371.542511 
	C323.317902,371.107117 327.885406,364.886353 327.501160,359.485046 
	C327.264526,356.158417 327.780396,353.416534 329.424713,350.602051 
	C331.597412,346.883118 330.105347,342.849640 329.654449,338.620483 
	C335.093628,338.226990 339.406982,340.798309 344.423584,342.202637 
	C337.388702,345.633636 336.988068,347.168060 340.888214,355.213623 
	C344.611176,352.323395 347.522400,349.247131 346.363586,343.930267 
	C350.070892,343.035034 352.928467,345.070435 356.127289,345.335052 
	C352.994476,355.430542 350.790985,365.378326 349.787628,375.712677 
	C347.886688,377.409180 346.439636,374.231018 344.170258,374.962677 
	C345.494415,377.266418 348.837433,375.982239 349.933777,378.750488 
	C345.838409,380.202332 342.280487,379.153961 338.645538,376.958893 
	C339.782562,372.348511 343.710083,368.815735 343.545868,363.681610 
	C340.965302,366.259125 340.965302,366.259125 336.028961,365.021118 
	C335.924194,364.343964 335.783722,363.558563 335.686737,362.767761 
	C335.619751,362.221313 335.612854,361.667480 335.537231,360.435760 
	C333.433136,365.924591 333.433136,365.924591 333.744019,371.640259 
	C331.524200,374.251343 327.434113,368.445404 325.441376,374.146637 
	C346.386078,381.969818 369.467560,383.909241 388.689850,396.141571 
	C388.239502,398.186188 386.976105,398.610718 385.645630,398.906036 
	C383.898895,399.293701 381.681610,399.155884 381.541229,401.668549 
	C381.403259,404.138977 382.983521,405.558075 385.112244,406.562805 
	C389.753021,408.753204 393.343445,412.183563 396.159241,416.417328 
	C396.955109,417.613922 397.916534,418.899048 396.988617,421.212128 
	C395.081970,418.939362 393.423370,416.878906 391.673218,414.899353 
	C389.912964,412.908386 388.012421,411.077850 384.879578,410.703125 
	C384.572540,415.085724 388.544037,415.887787 390.503113,417.836670 
	C386.569336,423.204224 393.723236,425.748749 393.288849,430.456329 
	C389.080048,428.544678 388.205933,424.046906 385.373810,420.983643 
	C383.318085,422.801880 383.832825,426.218018 380.754150,427.631622 
	C376.181458,420.844666 380.119171,413.496826 379.344421,406.082947 
	C377.394073,408.341949 379.192688,411.129303 377.071442,413.097473 
	C372.949188,411.809296 371.134491,407.969147 368.427429,404.585693 
	C368.639038,408.917908 370.962341,412.673431 370.255127,417.368866 
	C367.953857,415.375702 368.627747,412.410126 366.567566,410.333008 
	C364.882233,413.450989 363.967957,416.048523 366.457001,419.287659 
	C368.128540,421.462891 367.917480,424.352570 365.106110,425.673828 
	C362.303467,426.990997 360.544586,424.766357 359.913574,422.495361 
	C359.233978,420.049500 358.031464,419.086090 355.703033,419.405426 
	C352.773743,419.807220 349.221558,417.958313 347.209961,421.785767 
	C341.154144,433.307831 331.120789,437.389404 318.658051,437.319489 
	C305.684967,437.246765 292.683899,437.420502 279.826965,439.296326 
	C270.056763,440.721832 262.174713,445.917786 255.619385,453.194214 
	C251.718109,457.524597 250.300339,457.588867 246.448730,453.372528 
	C237.167145,443.211853 225.716492,438.621307 211.924942,438.070251 
	C199.472900,437.572693 186.956436,438.138245 174.553925,436.425903 
	C166.198593,435.272339 159.895386,430.896790 155.887512,423.671539 
	C153.962021,420.200317 151.685181,419.202209 147.945480,419.243439 
	C144.737717,419.278778 140.286499,421.222198 139.270569,415.438293 
	C138.996292,413.876831 136.727142,415.390472 135.432877,413.886627 
	C135.037384,412.472931 138.562866,410.030731 134.637314,408.505432 
	C131.624191,411.499481 134.678375,414.684265 134.459610,417.696350 
	C134.340164,419.341156 136.324219,421.422302 133.820023,422.513458 
	C131.894638,423.352356 130.308365,421.911530 128.977478,420.652435 
	C127.787506,419.526611 126.788902,418.198517 125.768311,417.031128 
	C123.597694,418.069489 124.249390,420.833710 122.039062,421.298859 
	C119.979858,420.479340 122.468468,418.516937 121.032242,417.416260 
	C117.653046,419.476166 115.560913,423.786469 110.570000,423.832794 
	C109.464996,415.301208 116.401588,411.207733 120.224586,405.276489 
	C115.634186,405.703278 113.447128,409.197937 110.619003,412.577271 
	C109.460808,409.781525 107.498802,409.226257 104.977539,409.306061 
	C100.338585,409.452972 97.353271,407.172333 96.645142,402.465240 
	C95.269997,393.324341 90.041260,385.835480 86.173225,377.766479 
	C85.073029,375.471375 83.158607,373.837189 81.094147,372.356659 
	C74.505829,367.631805 74.359940,364.366150 81.047638,359.333038 
	C74.117508,357.531616 66.903229,358.404510 59.694462,354.100281 
	C65.704391,352.721405 70.477844,351.626221 76.491196,350.246552 
	C73.216743,348.971100 71.071617,347.751373 68.657005,348.825073 
	C66.045723,349.986237 63.637146,346.531494 60.888332,348.761688 
	C60.418552,349.142853 59.376804,346.777893 60.311508,346.044525 
	C62.911728,344.004364 65.050804,340.528839 69.209663,342.010498 
	C71.533806,342.838501 73.431549,342.813080 74.910515,340.132965 
	C71.361855,337.380280 66.382103,336.519745 63.517040,332.264862 
	C68.045471,329.504700 72.580894,329.012970 77.427345,330.962433 
	C77.504539,328.232513 75.376945,326.556549 76.137970,323.832642 
	C80.155602,324.966431 83.478226,327.091583 86.297722,330.241180 
	C87.885605,325.616577 85.459526,323.403381 81.847481,321.749054 
	C76.066589,319.101318 71.809792,314.977203 69.107178,308.632812 
	C73.535248,308.188446 76.424515,311.064453 80.030792,311.623596 
	C80.468155,309.212585 77.678963,308.073914 77.856071,305.003815 
	C85.316422,310.220764 85.529892,319.144592 90.288475,326.093262 
	C90.940445,322.303375 91.060341,319.386505 89.286278,316.487518 
	C87.991104,314.371033 86.657028,311.923889 89.085564,309.705566 
	C90.654785,308.272186 92.604546,308.380280 93.998337,309.973328 
	C96.074043,312.345764 97.782974,315.944183 95.605804,318.110809 
	C90.964645,322.729553 94.489471,327.309448 94.133240,331.921021 
	C93.250473,324.281769 98.377708,319.564941 102.518097,314.650238 
	C103.784714,319.329742 102.810036,321.940552 98.865570,324.226562 
	C98.356224,324.521759 97.827087,325.152008 97.716667,325.708282 
	C96.781982,330.417450 96.544693,335.083038 98.666344,339.753540 
	C100.673271,338.591095 100.915276,336.981506 100.660248,335.593781 
	C99.462822,329.078003 103.593651,324.881531 107.609695,321.263062 
	C110.883621,318.313232 111.712227,315.333649 111.707520,311.287994 
	C111.633072,247.292618 111.657433,183.297119 111.659859,119.301651 
	C111.659912,117.801773 111.727402,116.299187 111.659027,114.802635 
	C111.543228,112.267914 112.374397,111.081429 115.199181,110.557816 
	C129.111389,107.978996 136.979401,100.145218 139.568375,86.359848 
	C140.075867,83.657608 141.088699,82.550209 143.727463,82.661636 
	C145.557022,82.738892 147.402908,82.538124 149.223999,82.682297 
	C152.034927,82.904823 153.735916,81.928139 155.138260,79.285393 
	C160.413620,69.343895 169.170059,65.056435 180.135422,64.728722 
	C192.281143,64.365707 204.453522,64.394379 216.565689,63.552696 
	C228.135468,62.748699 237.952637,57.676792 245.804031,49.013592 
	C249.951660,44.437111 251.724640,44.442856 255.839279,48.880699 
	C264.790649,58.535187 275.814331,63.481384 289.030273,63.715019 
	C300.678406,63.920937 312.336731,64.129723 323.963074,64.808334 
	C333.485962,65.364182 341.440918,69.444008 346.048126,78.117638 
	C348.026733,81.842567 350.449768,83.266800 354.325470,82.643272 
	C359.670441,81.783340 361.883026,83.557671 363.092560,89.322945 
	C365.489716,100.749161 373.226593,108.071114 384.784515,110.107979 
	C389.776184,110.987663 390.335571,113.195122 390.329529,117.392326 
	C390.239349,180.054382 390.291534,242.716660 390.249115,305.378815 
	C390.246277,309.583588 390.410797,313.626465 392.398193,317.488892 
	C393.293823,319.229431 394.194977,321.365967 393.995148,323.203369 
	C393.055206,331.846710 397.986420,337.499786 403.746399,343.271759 
	C403.708252,337.495667 402.118317,332.663544 398.100250,328.495209 
	C399.902405,325.839355 400.207703,323.295197 396.605011,321.521637 
	C400.378479,320.227905 404.413635,322.683929 403.616089,326.186981 
	C401.838287,333.994995 407.815033,339.971985 407.733398,347.291443 
	C411.278290,339.578766 409.826904,331.863037 407.088867,323.914856 
	C409.899963,324.479980 409.269318,327.027191 411.328369,327.875244 
	C409.875610,321.575531 404.376404,316.594208 406.211761,309.230988 
	C408.733032,312.395935 408.145233,316.258514 410.477539,319.945221 
	C410.468536,313.731628 407.332489,309.073273 406.793335,303.838898 
	C412.328094,308.646820 413.617401,315.119934 414.572754,321.811066 
	C414.433746,315.734070 413.260010,309.578949 416.588623,303.417053 
	C419.463379,306.531860 420.422333,309.859161 419.928101,313.853302 
	C419.324585,318.730530 417.536743,323.171722 415.407776,327.509094 
	C413.755554,330.875183 412.791229,334.325134 413.746582,338.481628 
	C416.873779,332.669891 419.575195,326.631744 426.169159,324.172821 
	C428.185638,326.514832 425.358704,328.701233 426.909424,330.945709 
	C431.819122,329.480499 436.200195,325.000366 442.268097,327.372345 
	C441.351471,334.076538 435.342590,336.045319 431.371887,339.847351 
	C431.558899,341.599396 433.888275,340.543884 434.392761,342.544830 
	C431.797577,346.594055 427.307159,347.606781 422.749969,348.234985 
	C420.296875,348.573181 417.759735,348.363190 415.262604,348.307434 
	C409.896606,348.187622 409.300568,348.703766 408.476013,354.840607 
	C414.906860,353.710419 421.092712,350.011963 427.835144,353.315186 
	C422.695923,354.243866 417.292206,354.130798 412.995728,358.347473 
	C414.547455,361.517578 415.379974,364.996735 414.209808,368.642609 
	C413.855377,369.746796 413.723267,371.315643 412.939423,371.824310 
	C408.119324,374.952515 406.509003,380.523407 402.942688,384.478363 
	C399.650940,388.128845 395.445953,390.939667 393.748352,395.996674 
	C392.918182,392.097321 394.380554,389.052155 396.909058,386.483337 
	C399.882080,383.462921 402.266571,380.121704 403.846466,375.433716 
	C405.194885,372.677490 410.255066,371.113708 405.130493,368.079010 
	C401.775513,365.766632 398.420502,363.454224 394.689545,360.882690 
	C397.065125,360.178894 398.767548,360.887970 401.021759,361.515808 
	C400.150848,360.312164 399.636353,359.601105 398.554138,358.105408 
	C403.666199,360.478027 408.237579,361.850220 412.369843,366.187195 
	C412.129486,362.910400 410.552551,362.253784 409.096008,361.210266 
	C400.663574,355.169006 390.600250,352.926239 381.086182,349.775085 
	C368.019714,345.447388 354.859100,341.260162 341.647095,337.442444 
	C329.931335,334.057007 317.808990,331.266449 305.531464,330.527374 
	C283.472260,329.199493 261.384247,327.842133 239.297684,327.636200 
	C221.451340,327.469818 203.679306,329.930176 186.003525,332.553894 
	C184.546265,332.770203 183.264175,333.446289 181.994919,334.381897 
	C178.564804,336.910248 175.036469,340.153168 171.086502,334.790741 
	C170.617798,334.154449 168.576767,334.558594 167.280365,334.667786 
	C153.910828,335.793732 141.440002,340.794586 128.476547,343.635223 
	C119.677155,345.563354 112.696396,351.241974 104.355431,353.953827 
	C103.013947,354.389984 102.227516,355.119110 102.306137,356.862732 
	C102.381767,358.539612 100.626633,358.767242 99.351051,358.890198 
	C97.269951,359.090820 98.894783,357.066284 98.290443,356.298157 
	C91.820442,358.540955 85.764275,360.948395 80.745987,365.616699 
	C80.694611,368.115540 82.668221,368.657501 84.872749,369.415955 
	C87.341637,366.280334 90.582283,364.155426 94.666237,363.492584 
	C95.753456,366.735748 93.479103,370.004395 95.546906,373.240082 
	C96.458572,374.666718 97.007126,376.903839 95.003433,379.027557 
	C92.127029,382.076202 93.435379,384.531982 97.940781,385.477112 
	C95.654373,392.202240 99.795784,397.714844 101.112030,404.202057 
	C106.944351,401.252502 111.216011,396.592773 116.886864,394.365265 
	C126.174171,390.717224 135.567169,387.339172 144.878387,383.750641 
	C148.777008,382.248108 150.735947,377.824066 155.554321,377.274719 
	C160.523376,376.708221 165.358612,374.968048 170.701706,373.628754 
	C170.097839,377.269409 167.363632,376.766296 164.514771,378.428528 
	C170.649277,377.293274 177.296265,378.021973 180.004242,375.100037 
	C184.003448,370.784912 188.495575,371.548828 192.593964,371.061737 
	C195.854874,370.674255 199.612839,372.077850 203.172989,371.634216 
	C209.224609,370.880096 215.482101,371.272156 221.354584,368.671875 
	C220.605148,367.874512 219.945129,367.172272 219.136642,366.234436 
	C218.988190,365.998840 218.947052,366.024994 218.947052,366.024994 
M145.507294,276.405243 
	C139.806946,282.780426 139.794388,282.789062 144.817886,290.079681 
	C148.213287,295.007477 151.725937,299.856079 155.047760,304.832489 
	C158.534714,310.056335 163.364456,313.667664 169.319580,317.878845 
	C167.477631,314.519562 164.740540,313.368103 163.919983,310.594940 
	C166.076309,310.371887 166.515091,312.471375 167.894608,312.664062 
	C168.661987,307.893585 163.989487,306.048584 161.208466,302.097839 
	C164.982910,302.811768 166.406723,305.164154 169.243576,306.432281 
	C166.530090,301.872314 163.467361,298.658539 158.947662,296.752991 
	C160.022339,294.932068 160.800140,293.614166 161.644119,292.184143 
	C165.894577,294.809052 168.754456,299.367249 174.197327,298.640350 
	C177.258530,293.922974 171.049332,292.599701 170.123489,288.293549 
	C175.348602,292.104523 171.216049,286.422638 173.282104,286.491516 
	C175.363129,287.059509 176.545364,288.693207 177.276749,290.873749 
	C177.848190,292.577484 178.914688,293.836639 180.993256,293.257690 
	C183.280228,292.620697 183.264877,291.239105 182.163452,289.479706 
	C181.005066,287.629333 184.382111,289.039459 183.581482,287.236389 
	C179.933151,284.968475 177.284714,281.123657 172.677963,278.645355 
	C172.369370,278.308350 172.060791,277.971344 171.235001,277.302429 
	C164.944717,271.052307 160.113663,263.417877 152.845978,257.445404 
	C150.441010,263.949219 148.207520,269.989319 145.995605,276.004395 
	C145.995605,276.004395 146.016327,275.979675 145.507294,276.405243 
M206.526733,181.064957 
	C210.858459,176.901016 208.624832,172.133423 207.629089,166.886322 
	C208.678101,172.257736 213.703964,168.403061 215.216309,170.844971 
	C220.339539,179.117111 232.350937,177.105316 237.061401,185.797943 
	C237.126434,185.917938 237.344940,185.962494 237.498703,186.025513 
	C241.088989,187.496552 242.746628,190.491791 243.695190,193.995605 
	C244.330826,196.343506 244.842239,198.725021 245.704803,202.325073 
	C248.499817,192.871948 250.065445,184.420868 251.814636,176.003769 
	C252.483109,172.787125 252.899536,170.351471 248.961014,168.886383 
	C246.460068,167.956039 246.089157,165.248718 245.600235,162.647598 
	C244.472626,156.648514 247.443008,152.418488 251.550903,147.812973 
	C252.305710,153.012970 251.773605,158.413742 255.981995,162.610550 
	C257.006531,160.001709 259.152527,159.116547 261.599335,159.944092 
	C264.145721,160.805298 265.571136,159.515335 267.340057,158.129669 
	C271.312408,155.018051 273.947327,151.512466 274.207550,146.089981 
	C274.403931,141.997635 275.841583,137.951904 276.861145,133.919403 
	C277.192200,132.610184 277.294617,130.818665 280.054993,130.979980 
	C279.685547,137.814423 277.052460,144.127274 275.557831,151.502563 
	C283.000916,147.879105 289.770203,144.583664 297.598358,140.772736 
	C295.354462,151.982101 289.010681,160.480087 285.478088,170.157135 
	C284.934174,169.966385 284.390259,169.775650 283.846375,169.584900 
	C285.404175,165.274719 286.961975,160.964523 288.519775,156.654343 
	C286.503632,158.616241 284.207825,159.621826 282.033142,160.822113 
	C279.760559,162.076431 279.538818,164.911453 277.804138,167.224274 
	C277.522064,162.508072 277.522064,162.508072 274.195099,163.005020 
	C275.823700,169.647766 268.989594,175.878571 261.283112,174.398666 
	C260.068115,176.979111 258.816650,179.637009 257.348206,182.755753 
	C262.159149,182.456863 266.088409,181.439606 269.626801,179.048935 
	C273.821869,176.214615 278.268860,176.049866 282.978607,177.637894 
	C285.492615,178.485565 288.219147,178.742477 290.677917,179.704987 
	C294.077271,181.035690 295.784027,179.609589 297.419067,176.808548 
	C300.776581,171.056702 304.355286,165.431427 307.946472,159.820297 
	C308.872101,158.374039 309.544830,156.428421 311.866852,156.382553 
	C313.255951,158.429276 311.757751,159.988449 310.838348,161.342148 
	C305.411224,169.333038 299.830566,177.219620 294.310242,185.147324 
	C293.514069,186.290741 292.503418,187.122635 291.111206,187.345551 
	C287.541779,187.917130 285.768372,190.236038 284.598785,193.465820 
	C282.766785,198.524734 278.833221,200.652283 273.628510,200.280045 
	C271.334534,200.115997 269.075592,199.391098 266.813538,198.865662 
	C260.103790,197.307144 254.868668,200.220886 253.181961,206.869461 
	C251.804642,212.298630 250.865494,217.838959 249.596771,223.985443 
	C247.536209,219.591461 250.217026,216.010040 249.471207,211.951065 
	C246.906631,220.737137 247.119354,226.608414 250.178894,228.820877 
	C251.167511,225.581375 252.294357,222.446304 254.297440,219.788055 
	C257.517426,215.514847 261.891693,212.424210 267.169952,214.084641 
	C274.130188,216.274170 280.471252,215.316727 287.191864,213.424271 
	C295.135620,211.187393 302.057617,212.717361 307.704895,219.712616 
	C310.413879,223.068161 311.177063,229.226181 316.095032,229.394547 
	C320.305328,229.538696 324.612091,226.912598 328.872223,225.499725 
	C329.503723,225.290298 330.185852,225.117477 330.714661,224.743881 
	C331.361145,224.287170 332.253387,223.711090 332.380585,223.058289 
	C333.764160,215.957718 333.991638,208.782318 334.040253,200.813171 
	C326.409760,204.969986 320.121948,209.915710 312.343018,212.027267 
	C316.078857,208.823196 319.746796,205.171875 324.167023,203.433746 
	C332.015015,200.347748 334.057922,195.635315 332.977661,187.405670 
	C332.051971,180.353638 330.233276,174.805206 323.721466,171.552017 
	C319.053955,169.220200 317.642487,165.378815 318.973694,160.735596 
	C320.265076,156.231384 321.717499,151.946701 317.968842,147.691650 
	C322.221741,149.792313 325.245605,152.567749 326.027283,156.990997 
	C327.058136,162.824112 330.310608,166.811890 335.224823,169.976501 
	C340.588379,173.430466 344.720551,178.340591 345.060608,184.867050 
	C345.312897,189.708313 347.282532,193.315628 349.663269,197.195740 
	C354.397156,204.910919 358.723267,213.064438 357.016449,222.487549 
	C356.237091,226.790329 357.308014,229.233093 360.889282,230.851227 
	C367.998352,234.063354 368.541962,240.092484 368.221649,246.746658 
	C367.669067,258.225464 362.592560,268.142273 357.439880,277.957184 
	C354.203461,284.121979 350.802826,289.445892 352.741180,297.385437 
	C354.628204,305.114716 351.860748,312.515961 343.797363,316.699585 
	C340.239960,318.545319 336.640106,320.212372 332.931122,321.719299 
	C329.012726,323.311249 325.025238,324.911438 321.882568,328.967590 
	C338.325012,330.125977 352.700134,338.203644 369.586487,342.317932 
	C367.338440,337.939514 362.631165,335.525726 365.400513,330.923279 
	C366.529419,330.685730 367.697113,330.558990 368.776703,330.180725 
	C369.955627,329.767670 370.984863,328.320923 372.347229,329.578247 
	C373.860779,330.975037 372.353943,332.232208 372.093933,333.612579 
	C371.440521,337.081635 373.124969,340.347534 373.506134,343.751312 
	C373.574799,344.364746 374.762512,344.741852 375.509979,344.325134 
	C377.135437,340.187256 369.867310,333.946594 378.943909,331.457794 
	C378.943909,329.907593 378.944305,328.079865 378.943848,326.252136 
	C378.934143,287.593994 378.913635,248.935867 378.918121,210.277740 
	C378.921295,182.950500 378.962677,155.623260 378.973816,128.296021 
	C378.975006,125.320702 379.469208,122.141464 375.144287,121.420975 
	C361.460724,119.141396 353.840698,110.581367 351.097107,97.416565 
	C350.456726,94.343773 349.307068,92.841164 346.209961,93.384727 
	C341.520721,94.207718 339.329254,92.016998 337.986542,87.691452 
	C335.580902,79.941544 330.111511,76.400269 321.880890,76.085335 
	C312.066406,75.709808 302.258179,75.314087 292.435516,75.201698 
	C278.445404,75.041618 265.346497,71.918159 254.209320,62.922642 
	C251.550110,60.774773 249.610641,61.449200 247.176529,63.305061 
	C238.644409,69.810295 229.021683,73.373924 218.265060,74.529686 
	C206.310318,75.814194 194.322861,75.024452 182.362305,75.952927 
	C170.484055,76.875015 167.422821,78.539825 163.184189,89.715637 
	C162.237961,92.210487 160.955170,93.829155 158.126160,93.335129 
	C152.672348,92.382729 151.245605,95.328728 150.119461,100.100380 
	C147.484894,111.263542 140.188110,118.608536 128.982269,121.017105 
	C124.078568,122.071098 122.931412,124.076698 122.941208,128.664734 
	C123.069283,188.650482 123.031403,248.636581 123.057175,308.622589 
	C123.060524,316.432495 122.844780,324.260254 123.982597,332.513428 
	C125.711830,331.194000 126.993469,330.179047 128.314865,329.218781 
	C129.532593,328.333832 130.840088,328.156494 131.884720,329.398926 
	C132.936890,330.650299 132.677490,331.931549 131.314682,332.793396 
	C130.120956,333.548309 128.768646,334.376038 129.666336,335.865906 
	C130.528244,337.296478 132.223282,338.156616 133.925507,337.993805 
	C136.231354,337.773285 138.514618,337.209717 140.777847,336.668854 
	C150.897095,334.250488 161.314056,332.942047 171.025787,328.927917 
	C170.894089,325.991791 169.106781,324.328094 167.261688,323.042725 
	C155.606491,314.923004 148.480972,302.942932 140.287231,291.852814 
	C137.187393,287.657196 137.012283,283.318512 138.744797,278.637421 
	C139.545959,276.472748 141.235123,274.345459 140.553360,271.997833 
	C138.576279,265.189911 139.170364,258.127960 138.127884,251.246002 
	C137.634323,247.987640 137.853104,244.655380 136.351593,241.486191 
	C132.211014,232.746796 132.951263,229.307251 139.868134,222.410477 
	C141.858688,220.425674 144.592773,218.812927 145.020508,215.841354 
	C146.044159,208.729736 149.700851,202.291183 150.178757,195.078781 
	C150.545670,189.541687 152.966583,185.220551 157.492523,182.072479 
	C159.756180,180.497971 161.906357,178.545380 162.203491,175.857544 
	C162.947296,169.129440 166.945587,165.255219 172.458038,162.110062 
	C175.653870,160.286667 178.757492,158.508453 182.322906,157.431595 
	C188.183792,155.661438 194.036179,153.766312 199.210281,148.650253 
	C199.201416,152.281540 197.709030,153.602570 196.475235,154.798401 
	C193.781143,157.409607 193.639786,159.449814 195.814255,162.821915 
	C199.571915,168.649124 204.047028,174.168503 205.380676,180.785095 
	C200.177948,175.759430 196.907135,169.310989 192.693237,163.557098 
	C191.750824,162.270264 191.235641,159.978516 189.218216,160.537994 
	C185.128128,161.672241 182.464035,164.555893 181.015503,168.581253 
	C179.848419,171.824493 177.991302,174.798065 181.509384,178.068100 
	C186.008972,182.250473 190.074493,186.904251 194.258942,191.418045 
	C195.254395,192.491852 196.882233,193.431168 195.975098,196.369995 
	C189.683334,190.377136 183.859421,184.829880 177.956299,179.207199 
	C175.080322,181.909042 172.460266,184.182999 170.058075,186.667603 
	C165.536240,191.344604 166.136139,196.110870 171.603683,199.467606 
	C173.728226,200.771942 176.111938,201.689285 178.121216,203.138428 
	C181.551361,205.612366 185.474243,207.591110 188.239929,210.838318 
	C187.946579,211.235565 187.653214,211.632812 187.359848,212.030060 
	C181.637070,208.950989 175.914276,205.871933 169.863220,202.616241 
	C168.519485,209.895294 168.013870,216.758423 161.826462,221.501617 
	C169.036697,226.017975 176.308945,222.230774 182.946472,224.046417 
	C183.525040,224.204697 184.867264,223.381287 184.650742,221.926300 
	C183.816727,220.657730 181.206635,220.834778 181.209518,217.760971 
	C185.937424,220.693085 189.797653,217.064133 193.282303,217.036194 
	C201.708298,216.968628 210.659973,213.798004 218.762665,218.385239 
	C221.290329,219.816284 223.182541,222.377380 225.344376,224.443436 
	C226.290253,225.347427 227.255600,227.040497 228.551483,226.353973 
	C233.165054,223.909775 237.113327,225.465958 241.215363,228.600449 
	C243.867676,223.123795 242.829269,218.304596 240.993835,213.731873 
	C239.360092,209.661591 235.384872,210.139160 231.908936,210.280258 
	C225.620728,210.535538 219.264267,208.962189 217.254639,203.026276 
	C214.534653,194.992294 209.606842,188.384033 206.526733,181.064957 
M325.661438,425.552063 
	C335.162018,423.396576 338.141998,416.091492 339.912354,407.814270 
	C339.538696,407.457825 339.337036,407.102570 339.057343,407.023468 
	C335.870758,406.122162 332.700531,405.135254 329.470856,404.420013 
	C323.398163,403.075256 321.684204,399.006561 325.137604,393.614410 
	C326.659485,391.238129 328.664124,389.134247 329.942657,386.646179 
	C333.157104,380.390686 332.004578,377.949127 325.145752,377.551331 
	C301.494873,376.179565 278.157715,370.761932 254.275558,372.285217 
	C244.525711,372.907074 234.694260,373.069916 224.967880,373.004242 
	C203.952423,372.862427 183.868973,378.444519 163.366348,381.359528 
	C156.371277,382.354095 156.454926,382.844116 158.870605,389.130402 
	C159.163940,389.893799 159.254700,390.742615 159.382492,391.560760 
	C160.019455,395.638763 161.980133,398.343964 166.473190,398.403229 
	C168.524933,398.430328 170.180038,399.403778 168.910431,401.350037 
	C167.616821,403.333130 167.455383,406.197144 164.707626,407.244293 
	C163.266815,407.793335 162.389008,408.804352 162.631821,410.727631 
	C163.688507,419.097534 170.692688,425.469696 179.323227,425.723083 
	C190.961365,426.064697 202.605011,426.285034 214.235504,426.801117 
	C226.141113,427.329437 237.208191,430.717072 246.710159,438.077393 
	C249.756927,440.437500 251.850616,440.576538 254.960464,438.257538 
	C262.955353,432.295685 271.872925,428.123993 281.962494,427.523315 
	C296.231445,426.673828 310.525513,426.246490 325.661438,425.552063 
M225.192505,302.644226 
	C217.767578,311.787628 217.259750,311.884918 209.233551,306.785431 
	C206.158829,304.831909 205.614685,302.724915 208.915405,300.788025 
	C217.134171,295.965179 221.654495,288.310944 225.351318,279.984314 
	C226.045456,278.420837 227.477234,276.855835 226.132828,274.936615 
	C214.286774,277.310272 206.740143,270.943878 207.130997,258.670044 
	C207.230881,255.533234 205.513031,255.344757 203.441666,255.420288 
	C197.881592,255.622986 192.769531,253.996796 188.385132,250.884827 
	C182.838226,246.947754 177.481705,242.803909 175.514206,235.519119 
	C173.630630,228.544907 171.135834,227.086258 164.481888,227.374451 
	C164.434113,233.804398 166.083176,240.182449 168.744171,245.612762 
	C171.806091,251.861221 170.629196,256.290344 166.805206,261.020508 
	C165.280121,262.906982 165.598907,264.414154 167.192657,266.260315 
	C171.778610,271.572632 172.771255,271.896454 179.672882,269.537994 
	C182.144730,268.693329 184.628067,267.328979 187.991974,268.389343 
	C183.882919,271.781006 178.838150,270.903778 175.078766,273.426117 
	C178.081543,277.102325 178.081543,277.102325 191.095657,276.647644 
	C190.189957,279.861206 186.093155,279.084869 184.666840,281.973663 
	C186.064423,283.802917 187.957794,284.916138 190.075104,285.972076 
	C198.056183,289.952576 200.686234,296.867828 197.247757,304.773895 
	C196.194824,307.194916 197.051239,308.174561 199.260056,308.688812 
	C209.899368,311.165894 220.342133,314.803802 231.561234,313.686279 
	C235.727722,313.271301 238.300186,315.133728 238.327805,319.645386 
	C238.339737,321.592560 238.558762,323.459198 241.045151,323.636230 
	C243.404816,323.804199 245.901093,323.959930 246.678009,320.891296 
	C247.754730,316.638580 250.993103,315.201416 254.815155,314.649658 
	C263.941956,313.332062 273.215820,312.924896 281.938599,310.171814 
	C276.769989,305.315857 270.522644,303.952881 263.367493,304.116272 
	C251.822281,304.379944 243.119141,297.429047 239.591461,286.361725 
	C238.917145,284.246216 238.943085,281.770264 236.012589,278.940735 
	C232.501266,287.131958 231.475922,295.851685 225.192505,302.644226 
M295.137543,244.606888 
	C293.782501,246.724518 292.424377,249.493652 290.032318,249.861237 
	C281.558807,251.163345 277.418976,259.069214 269.764557,261.988953 
	C270.604187,262.536255 270.974945,262.891937 271.416382,263.048737 
	C279.631500,265.966949 283.877960,271.557922 283.277588,280.480927 
	C283.175842,281.992950 283.422699,283.467102 284.324646,284.765869 
	C289.308228,291.941864 292.429474,299.481598 288.149353,308.381317 
	C292.848328,307.971283 292.571930,305.572083 291.927032,302.603516 
	C290.681030,296.867798 291.785309,295.223694 297.440460,293.592651 
	C298.715515,293.224884 300.026855,292.984955 301.313904,292.656433 
	C309.673157,290.522766 317.787201,287.700470 325.556702,283.932495 
	C327.188416,283.141144 329.202545,282.422546 328.449951,279.990540 
	C327.322754,276.347961 326.268982,272.824890 321.622742,271.718719 
	C318.091858,270.878052 314.374573,269.982239 311.471405,267.290039 
	C314.919250,267.650848 318.246155,268.425079 321.567352,269.223053 
	C322.863129,269.534363 324.739746,270.214630 325.204468,268.832245 
	C327.198517,262.900665 331.503448,258.037811 333.426025,251.865219 
	C328.394684,249.940994 323.149078,252.561340 317.606140,249.164688 
	C321.283630,248.970169 323.740723,248.851151 326.196411,248.708389 
	C335.810425,248.149506 336.510010,247.583450 339.082031,238.338501 
	C340.574066,232.975510 335.132782,227.019394 329.917175,228.291931 
	C326.849457,229.040359 323.760773,229.705856 320.705261,230.499954 
	C319.132385,230.908752 316.901794,231.007233 316.631073,232.877411 
	C315.935211,237.684662 312.570587,237.376556 309.179535,237.282257 
	C303.444641,237.122772 298.794037,239.163727 295.137543,244.606888 
M339.789978,277.194794 
	C336.100983,281.365234 331.596252,284.471344 326.781433,287.175476 
	C321.975494,289.874634 316.939301,291.940430 311.609863,293.442413 
	C306.555023,294.867004 301.645081,296.805786 296.671387,298.518463 
	C303.126465,297.907227 308.749908,293.902008 315.612610,295.359680 
	C317.153839,295.687012 319.044006,293.997559 320.594879,295.898804 
	C322.284943,297.970673 319.682190,299.292053 319.544098,301.103973 
	C321.799072,300.564819 323.308899,298.090881 326.410156,299.252930 
	C324.499420,302.287079 320.648804,303.509613 320.589172,307.391205 
	C326.379425,306.768066 329.861633,301.740204 335.033691,299.728577 
	C333.725891,303.570038 329.701538,305.520081 329.162201,309.657471 
	C329.085938,310.242493 327.585571,311.008423 326.708252,311.058533 
	C323.054016,311.267273 321.763794,313.681061 320.742889,316.776520 
	C323.180359,316.911682 324.747101,317.847687 324.649628,320.547943 
	C329.897308,317.760773 334.789185,315.267151 339.581055,312.594238 
	C347.890564,307.959198 351.997650,299.286621 348.672943,292.308472 
	C346.290680,287.308441 345.299042,282.290985 345.634979,276.875183 
	C345.788116,274.406097 345.206573,272.068634 344.241394,269.587006 
	C342.823822,272.087067 341.534332,274.361267 339.789978,277.194794 
M346.886688,224.385590 
	C346.174377,227.599838 347.491882,230.575806 347.925293,233.661011 
	C348.295563,236.296814 349.230957,239.141190 346.661255,241.462357 
	C344.686218,239.780182 346.679443,236.947632 344.327728,235.237473 
	C341.053192,242.513916 341.073273,250.296860 339.616760,257.414703 
	C343.080688,255.811447 347.096161,254.295242 349.963013,249.364029 
	C349.963013,251.622070 349.963013,252.600128 349.963013,253.909821 
	C352.782593,250.580231 352.038116,246.242340 355.057709,242.158844 
	C354.596222,250.369659 353.343475,257.310760 351.491241,264.263245 
	C352.566315,264.103638 352.805634,262.690643 354.149780,263.638947 
	C352.452881,267.750366 355.322205,272.209930 353.208954,276.519958 
	C358.831390,268.481567 363.505463,259.988220 365.211639,250.429184 
	C366.154663,245.145523 367.989685,238.466705 361.759583,235.007187 
	C355.624359,231.600357 349.917603,228.241409 347.389709,221.266174 
	C347.284210,222.088287 347.178711,222.910400 346.886688,224.385590 
M189.463028,310.045166 
	C186.700287,308.329559 183.937546,306.613922 181.069946,304.833191 
	C179.929443,307.009674 180.192673,308.916290 180.972549,310.776306 
	C181.837952,312.840302 185.149246,312.089081 185.653488,314.535004 
	C184.324677,317.226868 181.955017,315.145111 180.143845,315.936432 
	C179.317459,318.240143 178.341415,320.530640 177.694077,322.910522 
	C177.229523,324.618439 176.462234,326.827972 178.077271,328.055084 
	C179.801331,329.365051 181.892120,328.835510 183.369034,327.051300 
	C183.977127,326.316650 184.690491,326.373230 185.550934,326.313019 
	C195.091644,325.645782 204.599991,324.026794 214.205124,325.635498 
	C215.282379,325.815887 216.455795,325.422211 217.375381,325.318390 
	C218.642410,323.968109 216.631622,320.950684 219.270432,321.210022 
	C224.005890,321.675415 226.049179,317.366608 229.846405,315.940979 
	C216.291183,315.781738 202.957291,314.769073 189.463028,310.045166 
M310.653870,315.421295 
	C310.387878,312.230652 311.149658,308.837250 308.957794,305.714081 
	C308.170074,306.245422 307.439972,306.480072 307.156372,306.972076 
	C305.596527,309.678131 304.154266,312.213287 300.273468,310.097382 
	C299.542114,309.698639 298.072937,310.544556 296.984467,310.929779 
	C293.696472,312.093445 290.387634,313.032654 286.902008,313.556427 
	C280.881866,314.461060 274.922882,315.772583 268.938263,316.913361 
	C272.004517,318.407166 274.817688,316.298920 278.277588,317.295563 
	C275.471497,320.815430 268.198517,318.797882 269.240295,325.605988 
	C272.986420,323.728058 276.516937,324.150696 281.047760,325.163086 
	C288.409149,326.807983 296.456665,325.215454 304.188171,326.590149 
	C306.344696,326.973602 308.743256,327.444641 311.234833,326.553589 
	C312.229767,323.081848 311.341431,319.699219 310.653870,315.421295 
M141.150726,238.162918 
	C141.422394,239.382141 141.866867,240.249527 140.635971,241.657257 
	C138.962677,243.570999 141.307266,247.284592 142.051407,247.006317 
	C145.727112,245.631699 144.523712,249.883057 146.470840,250.310074 
	C146.461670,247.587708 144.379013,245.264145 145.315536,242.500961 
	C146.678101,242.011475 147.112106,244.144363 148.408340,243.561401 
	C150.108200,239.285843 144.422653,236.584839 146.007462,231.151245 
	C149.110977,237.143066 151.727051,242.193787 154.333557,247.226028 
	C155.417480,246.684952 154.300629,244.871307 156.016479,245.064011 
	C157.765610,245.876602 157.135880,248.647263 159.323318,249.126617 
	C162.623993,247.689819 157.796616,243.814087 161.165756,242.520401 
	C163.145645,242.484558 162.625778,245.276184 164.649948,245.337265 
	C162.071503,237.392670 159.563416,229.664825 156.758514,221.022491 
	C156.329132,222.963501 156.111343,223.948059 155.924240,224.793793 
	C146.397110,222.019318 154.422241,216.540222 153.861420,212.110901 
	C149.265915,221.061874 137.783859,224.831894 136.157852,237.193848 
	C139.723068,232.848907 139.919357,236.247330 141.150726,238.162918 
M329.220062,172.270370 
	C331.854858,174.714432 334.051453,177.618546 334.147797,181.218216 
	C334.233368,184.415314 336.053894,186.158630 338.183289,187.614929 
	C339.840698,188.748459 341.173370,189.157593 339.864410,191.657654 
	C338.446686,194.365494 336.922729,192.601562 334.934967,191.641632 
	C338.535583,202.581299 337.179626,213.002487 336.475433,223.660660 
	C339.773193,217.018188 337.070251,209.409317 340.374756,203.530548 
	C350.014771,206.280304 353.119354,213.059570 353.292084,221.815567 
	C354.656677,212.513687 350.464172,204.871140 346.191498,197.472076 
	C343.729767,193.209030 341.594452,189.308090 341.635590,184.127441 
	C341.689209,177.380630 335.171753,171.129318 328.676270,170.827896 
	C328.629456,170.825714 328.515320,171.304230 328.521362,171.556152 
	C328.524231,171.675400 328.736969,171.789627 329.220062,172.270370 
M167.438446,184.070465 
	C174.758530,178.385025 177.054718,169.732910 181.102097,161.711578 
	C169.933044,163.812897 163.930832,172.806274 166.754074,182.531204 
	C157.428818,184.826004 152.428299,190.768295 155.531113,195.955582 
	C157.357346,194.858948 156.623596,192.121246 158.351852,191.264130 
	C164.641998,193.330139 159.926743,201.210083 164.982254,204.343094 
	C166.235519,202.175888 166.224182,200.233734 165.406738,198.972977 
	C161.955582,193.650299 164.201233,189.164734 167.438446,184.070465 
M221.554916,266.147888 
	C225.348953,264.108887 228.225327,261.208954 229.478851,257.029816 
	C230.096909,254.969238 230.480423,252.689819 227.852737,251.474228 
	C224.606064,249.972290 216.315765,252.518326 213.072754,255.494614 
	C209.175842,259.071045 213.181564,260.805725 214.487595,263.210083 
	C214.565872,263.354156 214.645111,263.514374 214.660782,263.673309 
	C215.110199,268.234650 217.680908,268.073395 221.554916,266.147888 
M288.742462,232.232834 
	C291.802673,230.438522 294.814301,231.698288 297.910187,232.207977 
	C300.761353,232.677383 303.543488,234.840500 306.962677,233.249344 
	C298.025970,224.491058 285.027863,222.247559 278.408356,228.299469 
	C284.903748,229.802078 291.950684,224.400467 298.039124,230.224762 
	C274.055756,229.798309 274.055756,229.798309 271.394653,234.671402 
	C273.053772,236.230484 275.172882,236.063309 277.029449,235.647675 
	C280.735596,234.817947 284.350677,233.581528 288.742462,232.232834 
M342.742462,402.331543 
	C337.730865,403.025543 333.798492,400.144226 329.449677,399.083893 
	C329.741608,396.179474 331.447906,395.933136 333.077118,395.505859 
	C338.512238,394.080536 343.940918,394.566193 349.385986,395.426971 
	C354.382355,396.216858 354.478668,396.130066 356.114746,391.252533 
	C354.440247,389.876221 352.195801,390.806183 350.144287,389.740051 
	C350.734650,388.232361 352.998444,387.845428 352.835388,385.844421 
	C350.704681,384.899200 348.331390,385.438629 347.700928,387.256958 
	C346.302887,391.289062 343.376373,391.461853 339.857666,391.027191 
	C342.228149,393.649689 339.592499,393.806335 338.739685,393.719879 
	C335.985687,393.440765 332.134766,396.794708 330.679901,391.421265 
	C328.968048,393.724548 327.049377,395.789398 326.486816,399.021179 
	C333.480255,402.611420 341.614868,402.993652 348.344208,408.441467 
	C347.918640,405.244873 347.623901,403.030884 347.355011,401.011353 
	C345.439880,400.186127 344.527039,401.447784 342.742462,402.331543 
M277.699463,243.788284 
	C287.142822,246.085205 292.567047,238.474045 300.960785,235.074768 
	C296.680267,233.730774 293.835815,233.407166 290.545532,234.059982 
	C283.248474,235.507767 276.537842,240.685104 268.380524,237.560150 
	C271.163330,239.970703 273.618835,242.431366 277.699463,243.788284 
M248.223221,248.907501 
	C249.530640,248.172623 250.775757,249.594238 252.329987,249.425858 
	C248.441849,243.132324 240.762207,241.103546 235.405655,244.684464 
	C233.146790,246.194534 231.335098,248.173691 233.841415,250.739059 
	C237.750381,254.740158 242.156693,257.867737 248.842194,256.367981 
	C246.201370,254.113144 243.975250,251.940414 248.223221,248.907501 
M216.404221,306.329224 
	C225.332169,300.305756 233.455750,284.617493 229.711945,279.346954 
	C224.451233,288.079224 220.350800,297.429047 211.347260,303.546661 
	C213.294739,304.746246 214.535797,305.510712 216.404221,306.329224 
M162.021469,403.574585 
	C158.899811,396.655884 152.126099,398.568237 146.761368,397.668243 
	C143.176025,397.066742 141.432617,395.945465 141.615036,392.296356 
	C136.097580,391.151581 135.958145,397.558289 131.932098,398.201477 
	C139.948669,399.119934 147.853775,397.506226 155.466583,400.134216 
	C157.136780,400.710785 159.588318,400.928101 159.333664,403.275055 
	C159.059921,405.798096 156.330444,406.116608 154.419373,406.926270 
	C152.857803,407.587860 150.645996,408.856415 149.823944,406.247223 
	C148.988434,403.595367 146.962982,403.025513 144.775681,402.125122 
	C146.653137,405.258179 146.154709,408.512238 145.218277,413.187256 
	C150.863159,408.459534 157.036469,407.724426 162.021469,403.574585 
M256.682037,288.006866 
	C256.692078,284.511322 256.789490,281.013214 256.688629,277.520874 
	C256.578217,273.698425 254.330536,272.220825 250.385025,271.881134 
	C251.223663,276.920502 252.057465,281.334869 250.693451,285.771118 
	C249.038223,291.154388 250.861450,293.274719 256.976379,293.141541 
	C258.079437,291.656158 256.772736,290.291107 256.682037,288.006866 
M269.505920,221.140884 
	C270.687103,218.255356 268.303101,218.733353 266.875977,218.419678 
	C264.614105,217.922516 262.620361,218.094589 261.516266,220.629944 
	C259.272217,225.783066 260.096191,230.763428 261.784668,235.761047 
	C266.286865,234.976654 268.161285,232.619019 267.672668,228.397003 
	C267.398407,226.027145 268.106659,223.820358 269.505920,221.140884 
M224.868942,243.630844 
	C222.005844,239.378357 218.066956,238.049728 213.057861,238.855331 
	C210.918869,239.199356 210.020905,240.196365 210.240112,242.059982 
	C210.590637,245.040237 212.195557,247.386230 215.060699,248.416824 
	C217.348465,249.239746 224.391342,246.110657 224.868942,243.630844 
M248.825287,282.980103 
	C250.507599,273.631897 244.793259,267.039490 240.516541,259.901611 
	C240.792862,269.043518 242.959106,277.592194 247.530151,286.662628 
	C248.242111,284.803833 248.470261,284.208160 248.825287,282.980103 
M263.321045,248.202133 
	C269.981659,254.188904 274.059113,255.005020 278.785828,250.503464 
	C271.949188,248.374451 267.625946,241.965012 258.825836,241.193863 
	C260.639282,244.114761 261.743927,245.893997 263.321045,248.202133 
M264.668213,289.074738 
	C264.724121,286.423889 264.663727,283.764221 264.864136,281.124329 
	C265.140686,277.480835 263.719055,275.489655 259.972504,275.301941 
	C257.344879,287.804077 259.066650,294.192841 265.434723,294.781586 
	C265.178314,293.121796 264.932373,291.529602 264.668213,289.074738 
M258.046844,224.479782 
	C258.133209,223.490051 259.104614,222.425003 257.808075,221.311111 
	C253.229721,226.535812 254.048828,233.838409 250.119202,239.237274 
	C248.748276,241.120789 251.384094,241.734192 253.109665,241.477234 
	C257.056793,240.889450 260.057190,235.864655 258.836975,231.984543 
	C258.140503,229.769836 257.338867,227.579575 258.046844,224.479782 
M186.606735,237.475967 
	C183.559097,241.387314 187.643921,241.441605 189.335663,241.707138 
	C194.759811,242.558533 198.974228,239.702042 203.367844,236.734619 
	C200.423904,233.455841 197.512466,232.888885 194.088242,234.425919 
	C191.831467,235.438934 189.516571,236.322357 186.606735,237.475967 
M236.837540,238.346161 
	C238.578979,235.868332 239.628937,233.401382 236.754425,230.892014 
	C234.474640,231.115768 232.821075,233.322296 230.181763,232.504639 
	C228.387939,231.948898 227.873627,233.941467 227.156311,235.213623 
	C226.202255,236.905594 226.533859,238.428741 227.800507,239.760376 
	C231.010468,243.134995 233.729111,241.226883 236.837540,238.346161 
M273.017883,192.458755 
	C268.696655,192.570084 264.029083,191.249939 259.568054,195.746887 
	C264.353241,195.550201 267.892395,196.087952 271.436737,197.198273 
	C275.005066,198.316116 278.583252,198.092819 280.959137,193.822083 
	C278.336792,193.369888 276.102386,192.984589 273.017883,192.458755 
M233.040207,271.452759 
	C234.615891,270.764709 235.648117,272.716370 237.438004,272.327972 
	C237.526901,270.868958 237.755936,269.402161 237.673508,267.953094 
	C237.531448,265.455688 237.247757,262.353851 234.302460,262.132233 
	C231.162476,261.895874 230.121384,264.929260 229.529480,267.585510 
	C229.287155,268.673035 229.436920,269.896790 229.626740,271.021729 
	C230.040268,273.472565 231.395416,272.035278 233.040207,271.452759 
M209.388367,220.746063 
	C207.465912,221.525314 205.054245,220.767105 203.422867,222.500626 
	C205.827606,228.261536 209.840683,230.288528 218.772537,230.033432 
	C214.101593,228.222061 212.182404,224.460632 209.388367,220.746063 
M271.699127,294.629547 
	C273.452820,297.652924 276.910065,298.764557 279.091400,301.368805 
	C276.052856,295.201141 274.660767,288.293945 270.071564,282.233826 
	C268.545197,286.930328 270.135651,290.425049 271.699127,294.629547 
M284.853027,297.705933 
	C282.845642,294.651978 281.293854,291.197418 276.645813,288.545441 
	C279.481628,295.131317 280.958649,300.887939 285.628235,305.536194 
	C287.504333,302.321228 286.694366,300.275909 284.853027,297.705933 
M288.794739,216.889587 
	C287.169067,217.624756 285.306000,218.012802 284.070190,220.482224 
	C291.376068,218.198715 298.061676,219.546432 305.254150,222.298294 
	C300.811615,216.249146 295.413025,215.656586 288.794739,216.889587 
M269.562256,190.688614 
	C273.914215,189.296280 278.878052,193.688065 284.246094,188.920593 
	C277.258270,188.129227 271.528503,184.943176 265.916107,189.706604 
	C266.839233,190.837906 267.925995,190.456482 269.562256,190.688614 
M239.011230,207.102478 
	C239.331802,207.081985 239.743057,207.173828 239.947159,207.009064 
	C240.147308,206.847458 240.291611,206.361496 240.195435,206.126205 
	C238.665939,202.384247 229.868744,199.747284 222.854187,202.064774 
	C228.075165,203.692413 233.296127,205.320053 239.011230,207.102478 
M252.588715,298.245544 
	C259.085724,302.246063 266.351349,300.288361 274.661438,301.181091 
	C265.620026,297.541656 256.804199,299.004364 249.040131,295.411652 
	C250.024536,296.238373 251.008957,297.065063 252.588715,298.245544 
M88.044464,346.283325 
	C88.698639,345.866119 89.667969,345.793671 89.765106,344.530273 
	C85.270607,341.695587 80.625656,341.468445 75.174309,343.373260 
	C79.134377,347.053101 83.227837,346.896942 88.044464,346.283325 
M259.428192,265.649078 
	C256.878082,266.809265 256.878082,266.809265 254.962357,269.429382 
	C261.211792,264.837616 266.731476,266.879150 271.591309,270.434021 
	C273.678040,271.960358 274.857147,271.697449 277.421844,270.861938 
	C271.994690,266.252167 266.146973,265.638092 259.428192,265.649078 
M208.059219,246.774612 
	C207.382538,244.805771 206.705841,242.836929 205.936646,240.598953 
	C203.125671,242.293579 201.967102,244.734024 200.659897,247.070648 
	C202.373795,249.025391 204.421173,249.481033 206.576401,249.676544 
	C208.385345,249.840652 209.066406,249.144577 208.059219,246.774612 
M117.679329,333.065643 
	C113.583603,333.595428 109.837334,334.861877 106.826111,337.920929 
	C110.510315,341.375458 115.586479,339.206879 117.679329,333.065643 
M204.644669,232.712158 
	C206.320770,233.658234 207.943008,233.949066 209.827530,232.224747 
	C204.926147,229.864105 201.304810,226.669022 199.703354,221.571365 
	C198.941895,219.147400 197.299164,219.781921 194.771606,220.330017 
	C199.779373,223.683960 200.492340,229.043747 204.644669,232.712158 
M279.091553,153.446304 
	C277.047485,154.022720 275.218689,154.922806 273.706787,156.741806 
	C282.054047,158.295258 284.790466,157.148529 286.934326,151.213974 
	C284.102234,150.584991 282.627441,154.349869 279.091553,153.446304 
M238.280228,190.183151 
	C236.133469,188.891617 233.425644,188.734543 231.102173,185.348877 
	C232.078110,189.709061 233.357803,192.079681 235.919403,193.862045 
	C236.247879,193.179382 236.550140,192.551193 236.963593,191.691910 
	C240.856598,194.861008 241.610764,199.326065 242.687256,204.372681 
	C242.980835,198.840790 241.783600,194.496170 238.280228,190.183151 
M430.438873,336.675781 
	C433.433136,334.734924 437.238922,333.721619 438.990631,329.501099 
	C434.350891,329.434235 431.581665,332.140076 428.224976,333.709747 
	C428.870178,334.617859 430.302429,333.579376 430.108337,335.406342 
	C429.015350,336.142120 427.750549,336.993561 426.485718,337.845001 
	C426.553864,337.965546 426.621979,338.086090 426.690125,338.206604 
	C427.740387,337.785919 428.790680,337.365265 430.438873,336.675781 
M223.538483,194.349075 
	C227.105820,195.540436 230.588501,197.120178 234.493866,196.841187 
	C230.136551,194.712555 227.092865,189.388779 220.986725,191.320602 
	C221.009811,192.770157 221.989548,193.379425 223.538483,194.349075 
M272.181091,276.360107 
	C274.237854,277.536865 276.390289,278.637604 278.659393,277.119446 
	C279.958710,276.250092 279.964996,274.924469 278.416443,273.306915 
	C273.102264,276.128815 268.019684,272.460815 261.803162,271.719696 
	C265.304932,274.015289 269.056000,273.493073 272.181091,276.360107 
M128.969986,417.248566 
	C129.977188,418.145691 130.550797,419.736969 132.640381,419.524017 
	C131.609390,414.914978 130.873779,410.463837 125.935287,407.844452 
	C125.688606,411.512695 126.954849,414.155060 128.969986,417.248566 
M396.743378,340.018585 
	C395.832275,339.054352 395.535614,337.309326 393.374603,337.413086 
	C394.186584,342.427399 395.856354,346.701843 399.905029,350.203186 
	C400.239899,346.368317 398.879547,343.427216 396.743378,340.018585 
M291.284607,243.404816 
	C287.061310,245.682327 282.570160,246.942551 276.908234,246.493530 
	C283.880859,250.405045 288.908142,249.091278 291.284607,243.404816 
M255.347946,192.373596 
	C255.336075,193.458206 254.068954,194.357925 255.046570,195.903488 
	C257.321106,192.635986 261.853271,191.069290 261.254059,186.001617 
	C257.746338,186.872086 257.746338,186.872086 255.347946,192.373596 
M254.684158,245.259735 
	C259.465729,248.824829 263.265900,253.854599 269.559875,255.234055 
	C264.625946,253.149826 261.164276,249.531631 258.302643,245.151672 
	C257.473633,243.882812 256.142517,242.088409 254.684158,245.259735 
M321.783264,159.615555 
	C320.770813,165.735062 321.012360,166.122345 326.054260,166.097595 
	C325.028809,162.903763 324.024536,159.775879 322.799530,155.960571 
	C322.408813,157.440079 322.206512,158.206192 321.783264,159.615555 
M216.755524,183.821503 
	C221.736160,188.856277 221.736160,188.856277 226.600342,188.590012 
	C220.158752,185.653183 214.218445,182.892624 213.080658,174.440979 
	C211.812469,179.070190 213.478195,181.452805 216.755524,183.821503 
M262.813751,258.478210 
	C264.914185,258.478210 267.014587,258.478210 269.115021,258.478210 
	C263.991547,257.205566 260.967682,252.604233 256.259827,250.953323 
	C258.916595,252.881317 260.466492,255.607788 262.813751,258.478210 
M333.060760,276.391205 
	C333.382965,273.244904 334.127197,270.275726 336.787689,268.110779 
	C328.289795,274.174377 328.289795,274.174377 331.598145,278.347107 
	C332.016998,277.831177 332.427124,277.325989 333.060760,276.391205 
M78.185371,334.844147 
	C74.917580,333.028809 71.661972,331.156097 66.726387,332.606293 
	C71.032570,334.360229 74.080078,337.246765 78.185371,334.844147 
M309.705658,230.481369 
	C305.672791,227.138245 301.410278,224.262253 295.961334,223.759979 
	C302.242157,225.171417 306.516205,229.890198 311.503204,234.070435 
	C311.934326,231.902756 310.746826,231.606339 309.705658,230.481369 
M373.661377,401.870911 
	C372.536896,400.262268 371.882263,398.255280 369.810760,396.836792 
	C370.299408,401.416656 371.547607,404.984222 375.592773,407.731903 
	C374.926239,405.602112 374.441071,404.051788 373.661377,401.870911 
M424.714020,345.458405 
	C426.883667,345.031219 429.156860,344.790802 430.777161,342.217682 
	C427.229706,341.957001 424.277527,342.119751 420.857422,342.857086 
	C422.271393,343.938385 423.174866,344.629303 424.714020,345.458405 
M385.374420,341.137482 
	C384.716919,337.440063 388.523651,333.564209 384.747253,329.394470 
	C384.364746,333.795288 383.262543,337.607452 385.374420,341.137482 
M242.242416,237.057404 
	C243.867996,238.836090 244.422485,239.151840 245.503082,238.049332 
	C247.048782,236.472290 249.538605,234.909943 247.100861,231.629120 
	C245.734009,233.673676 245.240662,236.188004 242.242416,237.057404 
M390.340942,328.805603 
	C390.340942,333.103943 390.340942,337.402313 390.340942,342.498352 
	C392.020569,336.972870 391.329102,332.090515 391.171356,327.258942 
	C391.154877,326.753387 390.452454,327.101868 390.361877,327.668365 
	C390.335815,327.831512 390.344604,328.000214 390.340942,328.805603 
M86.368698,336.669769 
	C86.529968,336.690552 86.710953,336.765625 86.846779,336.716339 
	C86.974350,336.670013 87.166840,336.440735 87.138916,336.379730 
	C85.604477,333.025787 83.699188,330.009613 79.735512,328.173492 
	C81.327492,331.761658 82.806976,334.725983 86.368698,336.669769 
M274.644775,222.104523 
	C275.078796,220.690140 274.515778,220.078140 273.274139,220.881195 
	C270.470886,222.694290 270.025726,225.385696 270.730774,229.675781 
	C272.321808,226.631622 273.362518,224.640427 274.644775,222.104523 
M196.583206,227.902496 
	C194.639664,223.051575 193.134140,222.440369 189.153503,225.210449 
	C191.592346,226.121201 193.843445,226.961823 196.583206,227.902496 
M114.958275,324.325317 
	C116.430382,322.564270 117.975632,320.840118 118.105545,317.744324 
	C115.841934,319.046844 113.922371,320.151398 111.417847,321.592560 
	C113.802452,321.848419 113.114021,324.096924 114.958275,324.325317 
M79.219093,354.599548 
	C79.507240,354.454193 79.813461,354.334595 80.074783,354.151031 
	C80.181526,354.076050 80.260765,353.744232 80.234924,353.728973 
	C77.257271,351.975769 74.543106,352.261902 71.807419,354.702515 
	C74.329323,356.078766 76.498329,355.642151 79.219093,354.599548 
M417.881012,336.233490 
	C417.683990,336.636597 417.272949,337.062500 417.944519,337.396576 
	C418.033691,337.440887 418.267517,337.309235 418.368286,337.198761 
	C420.723602,334.616241 423.588806,332.344727 424.001495,328.095093 
	C421.152130,330.299561 419.682373,333.051422 417.881012,336.233490 
M288.604614,183.436844 
	C288.807770,183.211517 289.010925,182.986191 289.214081,182.760864 
	C289.096832,182.656601 288.980103,182.462036 288.862213,182.461319 
	C286.059296,182.444290 283.256256,182.448090 279.332397,182.448090 
	C282.926453,185.579376 285.518097,184.407837 288.604614,183.436844 
M110.449211,347.704163 
	C111.057144,346.298309 112.461044,344.982300 110.978226,343.231140 
	C108.679497,343.464691 107.786728,345.198792 107.458244,346.938141 
	C106.928513,349.743134 108.522308,349.090515 110.449211,347.704163 
M215.051514,185.789047 
	C214.098221,185.241318 213.144913,184.693588 210.940399,183.426926 
	C213.229858,186.873093 214.530182,189.217865 216.830811,191.061813 
	C218.190155,188.640900 217.135056,187.307083 215.051514,185.789047 
M115.708931,415.759918 
	C115.282021,416.579163 114.855110,417.398407 114.428200,418.217651 
	C117.719955,415.898773 119.306763,412.547241 120.171593,408.721008 
	C118.791275,410.881012 117.410957,413.041046 115.708931,415.759918 
M268.216827,164.625061 
	C266.479919,165.589783 266.165222,166.871140 267.968048,167.882645 
	C270.138428,169.100342 270.906555,167.174164 272.086914,165.927567 
	C271.013153,164.751114 270.013519,164.362762 268.216827,164.625061 
M266.350037,287.044556 
	C266.321625,289.889343 267.191650,292.414185 269.064941,294.616425 
	C268.180145,291.362183 267.595337,288.078033 267.435944,284.649017 
	C266.252716,285.067078 266.444275,285.793823 266.350037,287.044556 
M87.958824,351.580017 
	C88.617928,352.016418 89.277039,352.452820 90.305496,353.133789 
	C90.676933,351.264618 90.967651,349.801636 91.288857,348.185272 
	C86.769547,348.941864 86.769547,348.941864 87.958824,351.580017 
M228.055817,183.572220 
	C226.661285,181.521164 224.827881,180.931870 221.228729,181.306671 
	C224.126801,183.454941 225.530731,185.530151 228.055817,183.572220 
M130.394135,403.564117 
	C129.347229,402.658875 128.633835,400.960907 126.662018,402.019806 
	C126.371025,404.404846 128.236038,405.306152 129.800125,405.822662 
	C131.530746,406.394196 130.998596,404.981476 130.394135,403.564117 
z"/>
<path fill="#000000" opacity="1.000000" stroke="none" 
	d="
M219.006927,365.983246 
	C216.052887,366.105530 213.167374,367.058197 210.123566,366.660339 
	C200.159012,365.357666 195.331970,357.516663 200.468781,349.061920 
	C203.196869,344.571716 203.011292,340.163483 203.945770,335.724365 
	C202.186478,333.411438 199.359222,335.110504 197.130234,333.561981 
	C198.584763,331.809113 200.549011,331.764069 202.386658,331.726013 
	C206.489120,331.640991 210.605011,331.551758 214.695984,331.793427 
	C217.429947,331.954895 220.286026,333.002869 220.936310,335.930389 
	C222.084808,341.100922 223.988388,340.132050 226.653076,337.152802 
	C227.031281,336.729950 227.782715,336.640869 228.698975,336.255249 
	C230.120544,341.301300 232.275330,346.071716 225.839340,349.116516 
	C224.642929,349.682526 224.452103,350.877594 224.781158,352.138702 
	C226.289871,357.921021 223.880676,362.134216 219.174316,365.768250 
	C218.947052,366.024994 218.988190,365.998840 219.006927,365.983246 
M205.448792,350.725220 
	C205.483261,353.265961 206.851959,355.517365 207.718399,357.693176 
	C209.096603,361.154175 212.579315,361.290680 215.814545,359.755188 
	C218.465744,358.496857 220.587555,356.830231 219.754608,352.960083 
	C217.119461,353.751190 217.009003,357.644592 213.968948,355.580902 
	C212.004486,354.247437 211.490234,352.575104 211.786804,350.445251 
	C212.110352,348.122009 213.779404,347.317749 215.786316,346.544312 
	C217.957520,345.707489 220.878616,346.419678 222.403656,343.781158 
	C218.022049,341.689697 210.354401,344.606323 205.448792,350.725220 
M210.985352,336.628876 
	C209.414719,337.463257 208.001801,338.408752 207.886932,341.650421 
	C210.165390,337.830566 212.785889,336.936829 216.361053,338.108246 
	C214.993027,335.259064 213.324677,335.611908 210.985352,336.628876 
z"/>
<path fill="#000000" opacity="1.000000" stroke="none" 
	d="
M137.247284,349.941650 
	C134.481476,360.997162 138.259583,369.471680 146.426941,376.365112 
	C143.008896,379.321960 138.068588,379.802704 135.976761,377.524597 
	C133.344681,374.658081 132.868134,370.324036 129.362961,367.438202 
	C127.194702,371.874664 129.339432,374.805542 131.472977,377.726196 
	C132.228531,378.760468 133.615875,379.616943 132.646622,381.154388 
	C131.940323,382.274719 130.572388,382.668671 129.554077,382.121887 
	C126.728889,380.604858 124.893082,385.953705 122.436844,383.265808 
	C120.700035,381.365204 123.457062,378.494995 122.018120,376.085114 
	C121.528297,375.264801 121.683578,374.067322 121.215622,373.224579 
	C119.399696,369.954071 117.722557,366.928986 118.020004,362.744781 
	C118.300438,358.799713 114.990776,356.008545 110.626610,353.304352 
	C120.173737,347.984528 130.220322,347.533813 138.993515,342.973053 
	C136.172134,344.900848 138.865585,347.718811 137.247284,349.941650 
M128.926147,361.601532 
	C128.500320,357.693146 129.166687,353.635681 127.703873,348.467773 
	C124.412735,352.798798 123.635452,356.138855 125.138206,359.987244 
	C125.752686,361.560883 126.197525,363.348450 128.926147,361.601532 
z"/>
<path fill="#000000" opacity="1.000000" stroke="none" 
	d="
M320.367981,363.061584 
	C317.117523,369.039703 312.271240,370.933167 306.508209,368.817413 
	C301.850952,367.107635 299.751190,362.835266 301.599030,358.009094 
	C303.067230,354.174408 304.506256,350.705994 302.962555,346.311615 
	C301.491180,342.123199 305.708923,338.933960 306.452576,334.993835 
	C313.700409,334.355682 320.325623,337.249084 321.458557,341.961029 
	C322.363800,345.726044 321.314117,349.152313 317.978271,351.861176 
	C319.575592,355.056335 322.118195,358.390656 320.367981,363.061584 
M310.347809,357.134186 
	C312.328491,359.756073 307.520966,360.641357 308.863312,363.272339 
	C310.467438,364.074921 311.725891,363.441681 312.289703,361.874512 
	C312.987091,359.935944 313.022980,357.969696 310.347809,357.134186 
z"/>
<path fill="#000000" opacity="1.000000" stroke="none" 
	d="
M382.988708,353.516846 
	C382.371094,358.312561 381.462158,362.837402 380.626129,367.293152 
	C379.773743,371.835876 377.756927,376.829346 374.103668,380.331635 
	C371.082184,383.228271 367.349915,382.607635 363.811157,381.090973 
	C360.445129,379.648285 358.650818,377.158936 358.663544,373.341980 
	C358.688629,365.828644 360.748413,358.880096 364.433319,352.428894 
	C366.970428,347.987091 371.166016,347.892426 375.358124,349.333252 
	C377.982452,350.235260 380.342896,351.905090 382.988708,353.516846 
M371.517059,364.504211 
	C373.055023,361.414215 375.489471,358.492889 373.719116,354.467896 
	C369.701050,357.200928 365.657837,372.046234 367.830658,375.594421 
	C371.657318,372.937775 370.214905,368.684723 371.517059,364.504211 
z"/>
<path fill="#000000" opacity="1.000000" stroke="none" 
	d="
M276.858063,343.011810 
	C278.952942,334.632965 280.462311,333.241150 286.828949,333.482056 
	C293.904114,333.749756 295.911194,336.214874 296.423645,343.302246 
	C296.845520,349.136688 296.000488,354.663086 294.556091,360.216034 
	C293.330780,364.926788 290.209778,367.213226 285.496674,367.095734 
	C279.839630,366.954712 276.388214,364.143982 276.000427,358.853363 
	C275.624298,353.721161 274.175140,348.428101 276.858063,343.011810 
M287.476196,352.888397 
	C286.339813,350.740448 287.228271,348.793152 287.880310,346.714813 
	C288.719849,344.039001 289.817047,341.156433 287.043365,338.643311 
	C283.851440,343.128296 282.979950,358.894623 285.711945,361.069061 
	C287.832123,358.985382 287.672699,356.332153 287.476196,352.888397 
z"/>
<path fill="#000000" opacity="1.000000" stroke="none" 
	d="
M258.959961,350.964569 
	C262.050140,350.964569 265.140320,350.964569 268.042725,350.964569 
	C269.756836,356.156067 265.569031,360.629211 267.932861,365.713287 
	C264.372864,365.540741 260.977234,365.570801 257.638275,365.150787 
	C255.108704,364.832581 252.618591,363.613037 251.812546,361.037384 
	C249.156540,352.550385 248.766647,343.925507 252.411346,335.662476 
	C254.085037,331.867950 258.009308,331.239288 261.864410,331.803009 
	C265.604584,332.349884 267.735687,334.678467 268.217072,338.421143 
	C268.531128,340.862762 268.718384,343.320709 269.001526,346.164154 
	C265.821716,346.164154 262.805084,346.164154 259.600403,346.164154 
	C259.468811,347.328735 259.295990,348.858490 258.880859,350.996033 
	C257.381989,354.549286 256.283112,357.470703 259.508423,360.396637 
	C262.080597,356.512421 259.704224,353.823486 258.959961,350.964569 
M261.220123,340.650116 
	C261.636475,339.495850 261.818085,338.367340 260.437714,337.740387 
	C259.780151,337.441742 259.062286,337.683105 258.776855,338.336456 
	C258.118866,339.842621 257.704712,341.389832 259.107574,342.718109 
	C260.187195,342.633759 260.536316,341.877472 261.220123,340.650116 
z"/>
<path fill="#000000" opacity="1.000000" stroke="none" 
	d="
M168.200378,358.717590 
	C167.016769,356.923462 166.846527,355.451904 167.115738,353.656281 
	C167.930740,348.220154 166.970413,347.245911 161.403915,347.299408 
	C160.443085,345.599945 159.998749,343.751343 160.193115,341.512054 
	C165.794006,339.992401 171.379364,338.603546 177.337891,338.434479 
	C178.703812,339.975067 178.768646,341.925476 178.885147,343.859802 
	C173.644562,345.432922 172.985474,347.037109 175.541321,351.973999 
	C176.069382,352.994019 177.060059,353.866760 176.740158,355.137390 
	C175.483124,360.130157 176.728363,364.626068 179.611496,368.717804 
	C177.221115,370.092407 172.964355,371.074097 169.395889,371.084503 
	C169.244705,367.087219 170.638885,362.871918 168.200378,358.717590 
z"/>
<path fill="#000000" opacity="1.000000" stroke="none" 
	d="
M157.988647,366.664948 
	C158.689728,368.051422 159.147171,369.136597 159.800980,370.086578 
	C161.650040,372.773285 160.682922,374.375366 157.750763,374.242004 
	C155.545059,374.141693 153.704102,376.080200 151.388412,374.968750 
	C149.829102,364.966766 148.008850,354.972992 144.380112,344.995728 
	C147.206879,343.604645 150.464340,343.222290 154.402557,342.800201 
	C152.588989,351.355225 158.334000,358.284210 157.988647,366.664948 
z"/>
<path fill="#000000" opacity="1.000000" stroke="none" 
	d="
M404.773010,367.996155 
	C410.255066,371.113708 405.194885,372.677490 403.947388,375.123840 
	C400.608856,375.310089 398.025879,374.162781 396.054840,371.292450 
	C396.901245,369.700317 400.065369,369.531097 398.799896,366.910156 
	C401.124634,366.314087 402.676086,367.560120 404.773010,367.996155 
z"/>
<path fill="#000000" opacity="1.000000" stroke="none" 
	d="
M243.038971,329.656372 
	C247.074509,329.264832 250.716293,329.037201 254.131012,331.126221 
	C249.558640,332.852325 244.942902,332.261230 240.305405,331.889191 
	C240.208221,329.568909 241.653122,329.930115 243.038971,329.656372 
z"/>
<path fill="#000000" opacity="1.000000" stroke="none" 
	d="
M131.850372,386.487488 
	C129.071899,387.507629 126.948952,389.673676 123.243454,389.209442 
	C125.784058,386.014801 128.974182,385.249176 131.893677,384.498657 
	C133.426086,384.104706 132.795715,385.556244 131.850372,386.487488 
z"/>
<path fill="#000000" opacity="1.000000" stroke="none" 
	d="
M155.736298,340.285858 
	C154.470154,340.263000 153.406311,340.774689 152.558487,339.305267 
	C155.332520,337.687256 158.016998,336.329102 161.740204,337.694580 
	C160.382797,340.439240 157.917282,339.645630 155.736298,340.285858 
z"/>
<path fill="#000000" opacity="1.000000" stroke="none" 
	d="
M384.750763,388.409149 
	C387.170013,389.297150 389.521393,389.840637 389.279022,393.194946 
	C386.178131,393.515076 384.475494,391.546875 383.026947,389.761108 
	C381.647797,388.060852 383.063385,387.957611 384.750763,388.409149 
z"/>
<path fill="#000000" opacity="1.000000" stroke="none" 
	d="
M172.928192,278.878143 
	C174.690567,282.384918 172.799759,283.567230 170.209503,282.718292 
	C167.406219,281.799530 164.574966,280.217194 163.263580,276.590942 
	C166.278412,276.105896 168.295609,280.098755 171.452209,277.772278 
	C172.060791,277.971344 172.369370,278.308350 172.928192,278.878143 
z"/>
<path fill="#000000" opacity="1.000000" stroke="none" 
	d="
M199.323135,111.536041 
	C197.439484,105.990166 202.714645,107.446442 204.594284,105.949196 
	C206.463821,104.460014 207.555054,107.089867 208.235077,108.762634 
	C209.361099,111.532578 210.550262,114.294159 211.407410,117.150902 
	C212.168762,119.688377 211.275238,121.773987 208.661621,122.788956 
	C206.197556,123.745834 204.305984,122.659889 203.227676,120.570328 
	C201.784271,117.773277 200.707153,114.787216 199.323135,111.536041 
z"/>
<path fill="#000000" opacity="1.000000" stroke="none" 
	d="
M199.663910,121.690613 
	C200.628906,124.927383 199.548416,127.005379 196.853241,127.975037 
	C194.194763,128.931488 192.435043,127.350845 191.194763,125.181435 
	C189.967194,123.034264 188.814377,120.841476 187.704254,118.630791 
	C186.398438,116.030357 186.808731,113.676231 189.418945,112.263794 
	C192.075516,110.826279 194.258026,112.001862 195.719040,114.379837 
	C197.098450,116.625069 198.254669,119.007431 199.663910,121.690613 
z"/>
<path fill="#000000" opacity="1.000000" stroke="none" 
	d="
M296.602295,106.203979 
	C302.170349,106.049667 303.820160,107.965836 302.314850,112.551529 
	C301.438904,115.219879 300.389771,117.870956 299.065857,120.340744 
	C297.902618,122.510818 295.707886,123.086189 293.455841,122.176384 
	C291.128723,121.236252 290.128967,119.126129 290.964569,116.873833 
	C292.324982,113.207100 292.928741,109.086548 296.602295,106.203979 
z"/>
<path fill="#000000" opacity="1.000000" stroke="none" 
	d="
M180.257416,122.921448 
	C179.731552,121.244926 177.778839,119.712128 179.806305,118.321693 
	C181.825394,116.937012 182.730103,119.040161 183.635406,120.296158 
	C185.382553,122.720123 187.039444,125.215416 188.611420,127.756790 
	C189.413681,129.053818 191.231949,130.581894 189.253830,132.033218 
	C187.348511,133.431122 186.351334,131.528198 185.356766,130.215912 
	C185.067001,129.833588 184.722427,129.492813 184.385117,129.112900 
	C184.207916,129.396667 183.921249,129.648453 183.962936,129.820877 
	C184.407318,131.659195 187.480560,133.663986 184.477463,135.267685 
	C182.075089,136.550583 181.376999,133.473618 180.267807,132.033005 
	C178.650024,129.931854 177.253067,127.656334 175.826050,125.414375 
	C175.046158,124.189102 173.746048,122.743523 175.273300,121.438194 
	C177.154800,119.830063 178.178345,121.642860 179.219681,122.928726 
	C179.489151,123.261459 179.785980,123.842583 180.257416,122.921448 
z"/>
<path fill="#000000" opacity="1.000000" stroke="none" 
	d="
M256.324463,108.708122 
	C256.172485,112.221588 254.879944,114.433319 251.533768,114.169449 
	C248.068588,113.896187 247.590179,111.195183 247.632141,108.338181 
	C247.666153,106.022430 247.657578,103.705948 247.703583,101.390495 
	C247.757538,98.675804 249.029312,96.868134 251.856537,96.888878 
	C254.588806,96.908936 256.070862,98.627930 256.231201,101.310371 
	C256.369232,103.619339 256.307037,105.940254 256.324463,108.708122 
z"/>
<path fill="#000000" opacity="1.000000" stroke="none" 
	d="
M212.806992,106.679810 
	C212.739914,103.763084 213.856659,102.126198 216.433167,101.774818 
	C218.175369,101.537231 219.912323,101.793060 220.647415,103.635727 
	C221.652313,106.154655 219.023453,105.820091 217.770081,106.778481 
	C219.565720,108.380974 221.419662,109.771233 222.931778,111.466400 
	C224.199768,112.887901 224.591858,114.705002 223.525116,116.562035 
	C222.589676,118.190498 221.039276,118.825867 219.339279,118.807930 
	C217.347412,118.786919 215.654770,117.708511 215.229965,115.759689 
	C214.681702,113.244392 217.291321,113.929436 218.608932,113.160583 
	C216.482330,111.203339 213.503448,110.217575 212.806992,106.679810 
z"/>
<path fill="#000000" opacity="1.000000" stroke="none" 
	d="
M306.375488,117.468773 
	C306.545227,116.931801 306.550201,116.752762 306.626160,116.612076 
	C307.701202,114.621452 307.112122,110.498299 310.344543,111.237213 
	C314.018799,112.077133 310.200317,115.381790 311.061005,117.681770 
	C311.845001,116.676483 312.509979,115.753761 313.248413,114.894180 
	C314.227020,113.755066 315.474243,113.266129 316.697479,114.350143 
	C317.826965,115.351082 317.143158,116.471794 316.405151,117.426895 
	C314.178162,120.308960 311.968262,123.205574 309.677490,126.036453 
	C308.613403,127.351448 307.414886,128.526260 305.460815,127.394531 
	C303.472351,126.242935 304.105103,124.654510 304.607880,123.054764 
	C305.153687,121.318192 305.698456,119.581291 306.375488,117.468773 
z"/>
<path fill="#000000" opacity="1.000000" stroke="none" 
	d="
M323.249207,123.976776 
	C323.132080,125.451248 323.226624,126.715721 323.313110,127.872437 
	C322.660431,130.051834 320.005768,128.350510 319.203979,130.190933 
	C318.766754,131.914795 322.448914,132.892349 320.259003,134.826126 
	C318.577911,136.310608 317.224640,134.611649 315.878632,133.775574 
	C313.861481,132.522644 313.207733,130.910980 314.638947,128.775406 
	C316.394440,126.155968 318.077911,123.486656 319.891205,120.908287 
	C320.795532,119.622345 321.535126,117.564697 323.618774,118.375847 
	C325.793396,119.222404 328.424072,119.997581 328.251648,123.029869 
	C326.702911,125.155815 324.919708,122.908783 323.249207,123.976776 
z"/>
<path fill="#000000" opacity="1.000000" stroke="none" 
	d="
M231.124023,105.421967 
	C234.689682,106.870056 232.514328,108.664024 231.761658,110.104156 
	C232.296997,112.294830 236.283035,111.461494 235.280075,114.341057 
	C234.669189,116.094902 232.627289,116.050407 230.971863,116.223351 
	C227.878952,116.546448 227.471954,114.162567 227.040283,112.093872 
	C226.431580,109.176773 226.143799,106.194031 225.666595,103.247803 
	C225.182373,100.258209 226.552582,98.842285 229.438232,98.762619 
	C230.710266,98.727501 232.317291,98.259445 232.995239,99.779434 
	C233.766815,101.509338 232.358887,101.978424 231.057831,102.542961 
	C229.497925,103.219810 229.843246,104.273987 231.124023,105.421967 
z"/>
<path fill="#000000" opacity="1.000000" stroke="none" 
	d="
M222.700531,137.142334 
	C222.415314,134.561798 220.804153,132.390274 223.363327,129.126617 
	C228.268921,142.451447 229.599838,155.708664 232.663757,168.555817 
	C232.128174,168.693298 231.592575,168.830765 231.056992,168.968246 
	C228.289627,158.495117 225.522247,148.022003 222.700531,137.142334 
z"/>
<path fill="#000000" opacity="1.000000" stroke="none" 
	d="
M306.613037,192.569397 
	C312.205719,186.648163 317.011688,180.385406 324.238281,176.689285 
	C319.059784,185.604645 310.858215,191.537704 303.231537,198.083313 
	C303.299164,195.637650 305.095886,194.396652 306.613037,192.569397 
z"/>
<path fill="#000000" opacity="1.000000" stroke="none" 
	d="
M216.940506,165.870239 
	C217.292206,167.292053 217.523468,168.382767 217.754730,169.473480 
	C217.357849,169.620758 216.960953,169.768036 216.564072,169.915329 
	C212.075546,160.477753 207.272400,151.177475 204.691803,140.858917 
	C209.541672,143.314636 209.918335,148.379379 211.771591,152.501266 
	C213.679993,156.745804 215.155289,161.185059 216.940506,165.870239 
z"/>
<path fill="#000000" opacity="1.000000" stroke="none" 
	d="
M265.805115,102.070297 
	C268.303101,106.332916 264.616669,109.196114 263.648102,112.558296 
	C263.357758,113.566177 262.825592,114.448921 261.593750,114.285110 
	C260.422516,114.129356 259.827393,113.218109 259.950348,112.161224 
	C260.427277,108.061180 260.956329,103.964027 261.609436,99.888802 
	C262.023315,97.306023 264.177277,97.735001 265.949860,97.781471 
	C267.259735,97.815819 268.816559,97.863731 268.910767,99.683029 
	C269.011169,101.621475 267.016724,101.132118 265.805115,102.070297 
z"/>
<path fill="#000000" opacity="1.000000" stroke="none" 
	d="
M282.694458,118.788086 
	C281.062317,118.216789 279.575653,117.785652 279.706543,116.125999 
	C280.073944,111.465538 281.775055,107.124023 283.254120,102.743835 
	C283.535889,101.909416 284.419830,101.568649 285.325470,101.795662 
	C286.512939,102.093315 286.881439,103.003418 286.644684,104.085030 
	C286.255463,105.863052 285.754089,107.616928 285.284973,109.376984 
	C284.659058,111.725204 283.571564,113.824104 286.156830,116.110435 
	C288.050690,117.785301 287.084473,118.761520 282.694458,118.788086 
z"/>
<path fill="#000000" opacity="1.000000" stroke="none" 
	d="
M241.840576,125.067932 
	C245.150482,134.382904 244.048218,143.758591 243.619095,153.121445 
	C241.194656,144.813980 240.839828,136.232224 239.963638,127.729164 
	C239.846329,126.590782 240.106262,125.364120 241.840576,125.067932 
z"/>
<path fill="#000000" opacity="1.000000" stroke="none" 
	d="
M343.183716,138.848648 
	C342.271271,142.103699 340.097870,142.519562 337.578735,142.314819 
	C335.691254,142.161438 334.398224,141.127991 333.984863,139.358795 
	C333.392487,136.823456 333.954651,134.447906 336.813782,133.873093 
	C340.303650,133.171478 343.274902,133.841309 343.183716,138.848648 
z"/>
<path fill="#000000" opacity="1.000000" stroke="none" 
	d="
M168.033600,136.283691 
	C168.443665,138.776703 168.244568,140.822205 166.163147,141.807327 
	C164.177536,142.747101 161.950912,142.900070 160.156265,141.275085 
	C158.504608,139.779556 158.339706,137.802780 159.243835,135.846451 
	C160.246674,133.676544 162.272385,133.611542 164.308853,133.681534 
	C165.927017,133.737122 167.125580,134.445938 168.033600,136.283691 
z"/>
<path fill="#000000" opacity="1.000000" stroke="none" 
	d="
M257.746338,149.522919 
	C257.887848,143.468994 257.358612,137.823746 258.561005,132.261139 
	C258.799500,131.157715 258.716583,129.931091 259.744385,129.101669 
	C262.148315,132.473007 261.399628,145.814148 258.178589,155.874191 
	C257.046997,153.753204 257.948822,151.801620 257.746338,149.522919 
z"/>
<path fill="#000000" opacity="1.000000" stroke="none" 
	d="
M165.737595,100.435493 
	C167.545090,100.102386 168.923660,100.299789 168.976242,102.056091 
	C169.028488,103.801277 167.614716,103.764427 166.212723,103.996544 
	C163.341782,104.471878 160.605469,102.806152 157.728745,103.738091 
	C156.788284,104.042747 156.185776,103.151024 156.176285,102.285637 
	C156.163483,101.115791 157.044601,100.397484 158.102173,100.503143 
	C160.539780,100.746689 162.963852,99.613914 165.737595,100.435493 
z"/>
<path fill="#000000" opacity="1.000000" stroke="none" 
	d="
M337.619476,99.636063 
	C339.924896,99.589371 341.890991,99.549995 343.849823,99.651520 
	C344.957520,99.708931 345.744751,100.422775 345.678741,101.564888 
	C345.610962,102.737427 344.694550,103.219170 343.601440,103.190727 
	C341.491089,103.135788 339.370697,103.114349 337.277191,102.877930 
	C335.752380,102.705719 333.067444,104.476997 333.030518,101.423294 
	C332.995422,98.520012 335.730042,100.046669 337.619476,99.636063 
z"/>
<path fill="#000000" opacity="1.000000" stroke="none" 
	d="
M300.419434,190.197083 
	C299.182739,191.235931 298.561127,192.553223 296.443787,192.874695 
	C299.185669,187.574203 302.440735,183.315155 306.901276,179.963013 
	C306.620697,184.461258 302.880249,186.732620 300.419434,190.197083 
z"/>
<path fill="#000000" opacity="1.000000" stroke="none" 
	d="
M222.149048,164.670349 
	C221.164551,161.112381 219.034302,158.164597 219.912399,153.339615 
	C223.826355,159.332718 224.354080,165.134232 225.624222,170.720978 
	C223.300705,169.439407 223.158142,167.033035 222.149048,164.670349 
z"/>
<path fill="#000000" opacity="1.000000" stroke="none" 
	d="
M238.226746,160.858246 
	C238.422089,163.217560 238.600449,165.161758 238.809525,167.441071 
	C236.209778,164.082230 234.609909,155.392105 235.760818,150.803635 
	C237.896820,153.936188 237.353714,157.385284 238.226746,160.858246 
z"/>
<path fill="#000000" opacity="1.000000" stroke="none" 
	d="
M291.197632,175.567337 
	C290.408630,176.406219 289.001648,177.583878 289.482513,175.697876 
	C290.424896,172.001404 292.059601,168.424438 295.412781,164.645432 
	C295.791870,169.746506 292.708008,172.181076 291.197632,175.567337 
z"/>
<path fill="#000000" opacity="1.000000" stroke="none" 
	d="
M311.860962,199.828369 
	C313.297577,198.860397 314.178772,197.440247 316.303223,197.902939 
	C315.105347,201.605118 312.034241,202.693695 308.876465,204.216049 
	C308.853699,201.831787 310.656830,201.238022 311.860962,199.828369 
z"/>
<path fill="#000000" opacity="1.000000" stroke="none" 
	d="
M274.742371,398.770935 
	C274.790283,396.171967 274.628632,393.991943 274.953979,391.887238 
	C275.318634,389.528259 276.933655,388.036255 279.387421,387.960205 
	C281.680573,387.889099 283.099426,389.341461 283.668060,391.420898 
	C284.597992,394.821442 284.537903,398.323364 283.837219,401.736938 
	C283.357361,404.074402 281.709351,405.481201 279.158997,405.263153 
	C275.433044,404.944580 274.866516,402.225647 274.742371,398.770935 
z"/>
<path fill="#000000" opacity="1.000000" stroke="none" 
	d="
M212.747009,401.565430 
	C212.730347,398.289276 212.743118,395.456116 212.718597,392.623291 
	C212.698212,390.268402 213.048340,388.082764 216.041870,388.124359 
	C218.619095,388.160156 221.139496,388.681702 221.766983,391.825989 
	C222.550888,395.754059 220.610901,399.706635 221.859344,403.680328 
	C222.123138,404.519958 221.095901,405.067078 220.179306,405.092163 
	C218.478760,405.138672 218.015518,403.824158 217.420410,402.328491 
	C216.125854,402.896942 216.614609,405.371674 214.660690,405.053680 
	C212.858536,404.760406 212.903809,403.328979 212.747009,401.565430 
z"/>
<path fill="#000000" opacity="1.000000" stroke="none" 
	d="
M262.604553,394.956329 
	C262.876740,391.772247 261.439056,387.905060 266.443176,388.171082 
	C270.929047,388.409515 272.181305,391.595917 271.163879,395.155548 
	C270.215454,398.473724 271.953735,401.679596 270.970551,404.730255 
	C267.827698,406.152191 267.812775,403.118744 266.597900,401.728973 
	C266.038605,403.280518 266.448547,405.358368 264.128357,405.029694 
	C262.307739,404.771820 262.537018,403.186188 262.533722,401.884186 
	C262.528259,399.726929 262.578735,397.569489 262.604553,394.956329 
z"/>
<path fill="#000000" opacity="1.000000" stroke="none" 
	d="
M238.557953,403.917847 
	C236.564957,399.929230 238.305161,399.201202 242.141174,400.362335 
	C240.572220,398.289459 239.296814,396.943542 238.426819,395.373016 
	C237.216003,393.187378 237.130371,390.869110 239.060471,388.954834 
	C240.355423,387.670502 242.000214,387.419708 243.678452,388.174896 
	C244.954514,388.749146 245.933670,389.740601 245.981003,391.190338 
	C246.044281,393.129486 244.142960,393.099548 242.687256,393.522827 
	C244.787140,396.892120 248.051193,399.781311 245.420288,403.681335 
	C243.747971,406.160400 241.155167,405.760315 238.557953,403.917847 
z"/>
<path fill="#000000" opacity="1.000000" stroke="none" 
	d="
M231.575806,405.132080 
	C226.202789,406.081818 224.505035,404.082367 225.417099,399.152222 
	C225.860382,396.756012 225.430603,394.206604 225.499863,391.729492 
	C225.536377,390.423248 225.547745,388.881012 227.110260,388.408966 
	C229.157547,387.790466 231.721512,386.983948 232.977661,389.221222 
	C234.599045,392.109009 230.765167,391.685394 229.660568,393.498352 
	C232.047226,395.608185 233.769211,398.026276 229.828751,399.640106 
	C229.500763,402.358704 235.496826,401.435059 231.575806,405.132080 
z"/>
<path fill="#000000" opacity="1.000000" stroke="none" 
	d="
M256.324005,398.213379 
	C255.852859,400.735382 257.482056,404.502075 254.706451,404.547882 
	C251.220520,404.605438 253.137939,400.741119 252.714493,398.610565 
	C252.309448,396.572571 253.214783,394.289764 251.560516,392.475189 
	C250.539001,391.354736 249.212723,390.002655 251.076614,388.830231 
	C253.266190,387.452881 255.910873,387.329163 258.060974,388.904846 
	C259.809113,390.185913 258.386841,391.481842 257.380280,392.585754 
	C255.999329,394.100250 256.426819,395.989716 256.324005,398.213379 
z"/>
<path fill="#000000" opacity="1.000000" stroke="none" 
	d="
M319.736389,279.433228 
	C320.713226,280.400848 321.477722,281.610931 319.556458,281.203674 
	C315.731689,280.392944 312.337860,278.488037 309.615448,275.234467 
	C312.908936,276.574493 316.202454,277.914551 319.736389,279.433228 
z"/>
<path fill="#000000" opacity="1.000000" stroke="none" 
	d="
M195.177185,182.445984 
	C194.656113,180.008835 195.749847,180.239151 196.826782,181.239914 
	C199.622101,183.837509 201.778992,186.925629 203.024673,190.737656 
	C199.829117,188.694626 197.369278,185.911362 195.177185,182.445984 
z"/>
<path fill="#000000" opacity="1.000000" stroke="none" 
	d="
M187.401733,198.347748 
	C190.273178,200.067032 192.817673,201.755463 194.758881,204.871536 
	C189.317795,203.358673 186.773361,201.029999 187.401733,198.347748 
z"/>
<path fill="#000000" opacity="1.000000" stroke="none" 
	d="
M145.984818,276.016907 
	C150.943542,274.190948 151.501129,274.584625 154.529816,282.069977 
	C150.297684,282.756439 147.647247,285.862854 149.098190,289.040100 
	C150.498489,292.106476 152.649170,294.830170 154.933319,298.435394 
	C149.752014,297.066833 149.019577,292.541992 146.338821,289.967957 
	C142.758133,286.529816 142.926056,283.229462 146.388260,279.814850 
	C147.433228,278.784180 145.981125,277.669281 146.064285,276.266296 
	C146.016327,275.979675 145.995605,276.004395 145.984818,276.016907 
z"/>
<path fill="#000000" opacity="1.000000" stroke="none" 
	d="
M165.360657,290.481628 
	C163.679825,288.862823 161.373993,288.225647 160.872818,285.302063 
	C164.408844,286.242950 166.550018,288.320099 168.725479,290.621643 
	C167.245117,291.904877 166.457077,291.135651 165.360657,290.481628 
z"/>
<path fill="#000000" opacity="1.000000" stroke="none" 
	d="
M346.211761,297.704865 
	C346.294373,303.750336 341.416443,300.187256 339.042938,302.376801 
	C339.912231,297.052979 342.795166,295.283142 346.211761,297.704865 
z"/>
<path fill="#000000" opacity="1.000000" stroke="none" 
	d="
M330.522949,299.119812 
	C331.364899,295.009918 335.332367,294.259186 337.826721,291.866364 
	C337.161469,296.006714 334.933533,298.598816 330.522949,299.119812 
z"/>
<path fill="#000000" opacity="1.000000" stroke="none" 
	d="
M296.045654,322.556519 
	C293.752838,323.269836 291.950836,324.974854 289.327911,323.559479 
	C291.859344,320.993256 294.870056,320.226196 298.081116,319.724487 
	C298.701172,321.666504 297.120972,321.731201 296.045654,322.556519 
z"/>
<path fill="#000000" opacity="1.000000" stroke="none" 
	d="
M345.875854,198.380188 
	C346.520081,199.690308 347.239471,200.663025 346.822235,201.907959 
	C342.704193,201.061859 342.510834,200.794693 342.299530,195.638077 
	C343.997803,195.711044 344.696350,197.118378 345.875854,198.380188 
z"/>
</svg>